<?xml version="1.0" encoding="UTF-8"?>
<svg width="24px" height="24px" viewBox="0 0 24 24" version="1.1" xmlns="http://www.w3.org/2000/svg" xmlns:xlink="http://www.w3.org/1999/xlink" class="">
    <title>Slice</title>
    <g id="Page-1" stroke="none" stroke-width="1" fill="none" fill-rule="evenodd">
        <path d="M12,0 C18.627417,0 24,5.372583 24,12 C24,18.627417 18.627417,24 12,24 C5.372583,24 0,18.627417 0,12 C0,5.372583 5.372583,0 12,0 Z M12,2.5 C6.75329487,2.5 2.5,6.75329487 2.5,12 C2.5,17.2467051 6.75329487,21.5 12,21.5 C17.2467051,21.5 21.5,17.2467051 21.5,12 C21.5,6.75329487 17.2467051,2.5 12,2.5 Z" id="Oval-path" fill="var(--green)" fill-opacity="0.15" fill-rule="nonzero"></path>
        <path d="M12,0 C18.627417,0 24,5.372583 24,12 L21.5,12 C21.5,6.75329487 17.2467051,2.5 12,2.5 L12,0 L12,0 Z" id="Combined-Shape" fill="var(--green)" fill-rule="nonzero" class="spin"></path>
    </g>
</svg>