<?xml version="1.0" encoding="UTF-8"?>
<svg width="24px" height="24px" viewBox="0 0 24 24" version="1.1" xmlns="http://www.w3.org/2000/svg" xmlns:xlink="http://www.w3.org/1999/xlink">
    <title>status-notbuilt</title>
    <g id="Page-1" stroke="none" stroke-width="1" fill="none" fill-rule="evenodd">
        <g id="status-notbuilt" fill="#8686A2" fill-rule="nonzero">
            <circle id="Oval" fill-opacity="0.15" cx="12" cy="12" r="12"></circle>
            <path d="M9.76306926,6.39543128 C7.63486956,7.3218372 6.25,9.46619862 6.25,11.8461538 C6.25,15.1066906 8.89330938,17.75 12.1538462,17.75 C14.5338014,17.75 16.6781628,16.3651304 17.6045687,14.2369307 C18.2197448,12.8237084 16.8465121,11.3891167 15.4338955,11.8820297 L15.3014068,11.9339468 C15.0663311,12.0362969 14.7190675,12.0961538 14.3076923,12.0961538 C12.9801522,12.0961538 11.9038462,11.0198478 11.9038462,9.69230769 C11.9038462,9.34949503 11.9454135,9.05120428 12.0184996,8.82525745 L12.0660532,8.69859319 C12.7005661,7.24125672 11.2204548,5.76103097 9.76306926,6.39543128 Z M10.4615385,8 C10.2405769,8.5075 10.1538462,9.10346154 10.1538462,9.69230769 C10.1538462,11.9863462 12.0136538,13.8461538 14.3076923,13.8461538 C14.8965385,13.8461538 15.4925,13.7594231 16,13.5384615 C15.3601923,15.0082692 13.8592308,16 12.1538462,16 C9.85980769,16 8,14.1401923 8,11.8461538 C8,10.1407692 8.99173077,8.63980769 10.4615385,8 Z" id="Path"></path>
        </g>
    </g>
</svg>