<?xml version="1.0" encoding="UTF-8"?>
<svg width="450px" height="336px" viewBox="0 0 450 336" version="1.1" xmlns="http://www.w3.org/2000/svg" xmlns:xlink="http://www.w3.org/1999/xlink">
    <g stroke="none" stroke-width="1" fill="none" fill-rule="evenodd">
        <path d="M218,144 L314,144 C327.254834,144 338,154.745166 338,168 C338,181.254834 327.254834,192 314,192 L218,192 C204.745166,192 194,181.254834 194,168 C194,154.745166 204.745166,144 218,144 Z" fill="currentColor" opacity="0.75"></path>
        <path d="M24,144 C37.254834,144 48,154.745166 48,168 C48,181.254834 37.254834,192 24,192 C10.745166,192 1.623249e-15,181.254834 0,168 C-1.623249e-15,154.745166 10.745166,144 24,144 Z" fill="currentColor" opacity="0.25"></path>
        <path d="M97,144 L145,144 C158.254834,144 169,154.745166 169,168 C169,181.254834 158.254834,192 145,192 L97,192 C83.745166,192 73,181.254834 73,168 C73,154.745166 83.745166,144 97,144 Z" fill="currentColor" opacity="0.5"></path>
        <path d="M265.029437,7.02943725 C274.305396,-2.24652118 289.28528,-2.34214962 298.678845,6.74255194 L298.970563,7.02943725 L442.970563,151.029437 C452.246521,160.305396 452.34215,175.28528 443.257448,184.678845 L442.970563,184.970563 L298.970563,328.970563 C289.59798,338.343146 274.40202,338.343146 265.029437,328.970563 C255.753479,319.694604 255.65785,304.71472 264.742552,295.321155 L265.029437,295.029437 L381.452393,178.606596 C387.310271,172.748745 387.310275,163.251271 381.452414,157.393404 C381.452411,157.3934 381.452407,157.393397 381.452393,157.393404 L265.029437,40.9705627 L265.029437,40.9705627 C255.753479,31.6946043 255.65785,16.7147201 264.742552,7.32115494 L265.029437,7.02943725 Z" fill="currentColor" fill-rule="nonzero"></path>
    </g>
</svg>