<?xml version="1.0" encoding="UTF-8"?>
<svg width="27px" height="21px" viewBox="0 0 27 21" version="1.1" xmlns="http://www.w3.org/2000/svg" xmlns:xlink="http://www.w3.org/1999/xlink">
    <title>Group 3</title>
    <g id="Page-1" stroke="none" stroke-width="1" fill="none" fill-rule="evenodd">
        <g id="Light" transform="translate(-137.000000, -196.000000)" fill-rule="nonzero">
            <g id="Group-3" transform="translate(137.000000, 196.726694)">
                <path d="M19.25,3.77330573 C21.3210678,3.77330573 23,5.45223792 23,7.52330573 C23,9.59437354 21.3210678,11.2733057 19.25,11.2733057 C17.1789322,11.2733057 15.5,9.59437354 15.5,7.52330573 C15.5,5.45223792 17.1789322,3.77330573 19.25,3.77330573 Z M19,12.2733057 C19.2761424,12.2733057 19.5,12.4971634 19.5,12.7733057 C19.5,13.0494481 19.2761424,13.2733057 19,13.2733057 C18.7238576,13.2733057 18.5,13.0494481 18.5,12.7733057 C18.5,12.4971634 18.7238576,12.2733057 19,12.2733057 Z M23,10.7733057 C23.2761424,10.7733057 23.5,10.9971634 23.5,11.2733057 C23.5,11.5494481 23.2761424,11.7733057 23,11.7733057 C22.7238576,11.7733057 22.5,11.5494481 22.5,11.2733057 C22.5,10.9971634 22.7238576,10.7733057 23,10.7733057 Z M15,10.7733057 C15.2761424,10.7733057 15.5,10.9971634 15.5,11.2733057 C15.5,11.5494481 15.2761424,11.7733057 15,11.7733057 C14.7238576,11.7733057 14.5,11.5494481 14.5,11.2733057 C14.5,10.9971634 14.7238576,10.7733057 15,10.7733057 Z M24.5,6.77330573 C24.7761424,6.77330573 25,6.99716336 25,7.27330573 C25,7.54944811 24.7761424,7.77330573 24.5,7.77330573 C24.2238576,7.77330573 24,7.54944811 24,7.27330573 C24,6.99716336 24.2238576,6.77330573 24.5,6.77330573 Z M13.5,6.77330573 C13.7761424,6.77330573 14,6.99716336 14,7.27330573 C14,7.54944811 13.7761424,7.77330573 13.5,7.77330573 C13.2238576,7.77330573 13,7.54944811 13,7.27330573 C13,6.99716336 13.2238576,6.77330573 13.5,6.77330573 Z M23,2.77330573 C23.2761424,2.77330573 23.5,2.99716336 23.5,3.27330573 C23.5,3.54944811 23.2761424,3.77330573 23,3.77330573 C22.7238576,3.77330573 22.5,3.54944811 22.5,3.27330573 C22.5,2.99716336 22.7238576,2.77330573 23,2.77330573 Z M15,2.77330573 C15.2761424,2.77330573 15.5,2.99716336 15.5,3.27330573 C15.5,3.54944811 15.2761424,3.77330573 15,3.77330573 C14.7238576,3.77330573 14.5,3.54944811 14.5,3.27330573 C14.5,2.99716336 14.7238576,2.77330573 15,2.77330573 Z M19,1.27330573 C19.2761424,1.27330573 19.5,1.49716336 19.5,1.77330573 C19.5,2.04944811 19.2761424,2.27330573 19,2.27330573 C18.7238576,2.27330573 18.5,2.04944811 18.5,1.77330573 C18.5,1.49716336 18.7238576,1.27330573 19,1.27330573 Z" id="Shape" fill="#FE820A" transform="translate(19.000000, 7.273306) rotate(14.000000) translate(-19.000000, -7.273306) "></path>
                <path d="M11.8877818,4.27409308 C8.22923571,4.32549132 5.28612469,6.88927867 4.60213104,10.7649686 L4.58235938,10.8812148 L4.58473302,10.88089 C3.4314586,11.0474313 2.33956763,11.498575 1.51806852,12.2026255 C0.545390822,13.0362407 0,14.1756416 0,15.546033 C0,18.5509235 2.23102876,20.2733057 5.4375,20.2733057 L17.625,20.2733057 C21.1960089,20.2733057 24,17.804309 24,14.4551239 C24,11.3314905 21.7788166,9.19522898 18.5606141,8.69958154 C18.5587553,8.69929534 18.5572256,8.69809019 18.5565687,8.69641662 C18.0857008,7.5065324 17.2762515,6.42823254 16.2213641,5.64067704 C15.0401957,4.75884289 13.6025139,4.27330573 12,4.27330573 L11.8877818,4.27409308 Z" id="Path" fill-opacity="0.6" fill="#8F8FA3"></path>
            </g>
        </g>
    </g>
</svg>