<?xml version="1.0" encoding="UTF-8"?>
<svg width="24px" height="16px" viewBox="0 0 24 16" version="1.1" xmlns="http://www.w3.org/2000/svg" xmlns:xlink="http://www.w3.org/1999/xlink">
    <g stroke="none" stroke-width="1" fill="none" fill-rule="evenodd">
        <g transform="translate(-137.000000, -251.000000)" fill="var(--light-grey)" fill-rule="nonzero">
            <path d="M148.887782,251.000787 C145.229236,251.052186 142.286125,253.615973 141.602131,257.491663 L141.582359,257.607909 L141.584733,257.607584 C140.431459,257.774126 139.339568,258.225269 138.518069,258.92932 C137.545391,259.762935 137,260.902336 137,262.272727 C137,265.277618 139.231029,267 142.4375,267 L154.625,267 C158.196009,267 161,264.531003 161,261.181818 C161,258.058185 158.778817,255.921923 155.560614,255.426276 C155.558755,255.42599 155.557226,255.424784 155.556569,255.423111 C155.085701,254.233227 154.276252,253.154927 153.221364,252.367371 C152.040196,251.485537 150.602514,251 149,251 L148.887782,251.000787 Z" id="Path"></path>
        </g>
    </g>
</svg>