<?xml version="1.0" encoding="UTF-8"?>
<svg width="24px" height="24px" viewBox="0 0 24 24" version="1.1" xmlns="http://www.w3.org/2000/svg" xmlns:xlink="http://www.w3.org/1999/xlink">
    <defs>
        <linearGradient x1="50%" y1="0%" x2="50%" y2="100%" id="rain-gradient">
            <stop stop-color="var(--cyan)" offset="0%"></stop>
            <stop stop-color="var(--blue)" offset="100%"></stop>
        </linearGradient>
        <linearGradient x1="50%" y1="50%" x2="50%" y2="250%" id="rain-cloud-gradient">
            <stop stop-color="var(--light-gray)" offset="0%"></stop>
            <stop stop-color="var(--cyan)" offset="100%"></stop>
        </linearGradient>
    </defs>
    <g stroke="none" stroke-width="1" fill="none" fill-rule="evenodd">
        <g transform="translate(0.000000, 2.000000)" fill-rule="nonzero">
            <path d="M12.769,14 L12.7692308,19.2156863 C12.7692308,19.6488508 12.4248344,20 12,20 C11.5751656,20 11.2307692,19.6488508 11.2307692,19.2156863 L11.23,14 L12.769,14 Z M18.923,14 L18.9230769,19.2156863 C18.9230769,19.6488508 18.5786806,20 18.1538462,20 C17.7290117,20 17.3846154,19.6488508 17.3846154,19.2156863 L17.384,14 L18.923,14 Z M3.538,14 L3.53846154,18.3333333 C3.53846154,18.7664978 3.19406519,19.1176471 2.76923077,19.1176471 C2.34439635,19.1176471 2,18.7664978 2,18.3333333 L2,14 L3.538,14 Z M22,14 L22,18.3333333 C22,18.7664978 21.6556037,19.1176471 21.2307692,19.1176471 C20.8059348,19.1176471 20.4615385,18.7664978 20.4615385,18.3333333 L20.461,14 L22,14 Z M9.692,14 L9.69230769,18.0392157 C9.69230769,18.4723802 9.34791135,18.8235294 8.92307692,18.8235294 C8.4982425,18.8235294 8.15384615,18.4723802 8.15384615,18.0392157 L8.153,14 L9.692,14 Z M15.846,14 L15.8461538,17.1568627 C15.8461538,17.5900273 15.5017575,17.9411765 15.0769231,17.9411765 C14.6520887,17.9411765 14.3076923,17.5900273 14.3076923,17.1568627 L14.307,14 L15.846,14 Z M6.615,14 L6.61538462,16.8627451 C6.61538462,17.2959096 6.27098827,17.6470588 5.84615385,17.6470588 C5.42131942,17.6470588 5.07692308,17.2959096 5.07692308,16.8627451 L5.076,14 L6.615,14 Z" fill="url(#rain-gradient)"></path>
            <path d="M11.8877818,0.00078735 C8.22923571,0.05218559 5.28612469,2.61597294 4.60213104,6.4916629 L4.58235938,6.6079091 L4.58473302,6.6075843 C3.4314586,6.7741256 2.33956763,7.2252693 1.51806852,7.9293198 C0.545390822,8.762935 0,9.9023359 0,11.2727273 C0,14.2776178 2.23102876,16 5.4375,16 L17.625,16 C21.1960089,16 24,13.5310033 24,10.1818182 C24,7.0581848 21.7788166,4.92192325 18.5606141,4.42627581 C18.5587553,4.42598961 18.5572256,4.42478446 18.5565687,4.42311089 C18.0857008,3.23322667 17.2762515,2.15492681 16.2213641,1.36737131 C15.0401957,0.48553716 13.6025139,0 12,0 L11.8877818,0.00078735 Z" fill="url(#rain-cloud-gradient)"></path>
        </g>
    </g>
</svg>