<?xml version="1.0" encoding="UTF-8"?>
<svg width="24px" height="16px" viewBox="0 0 24 16" version="1.1" xmlns="http://www.w3.org/2000/svg" xmlns:xlink="http://www.w3.org/1999/xlink">
    <defs>
        <linearGradient x1="50%" y1="75%" x2="50%" y2="450%" id="cloud-gradient">
            <stop stop-color="var(--grey-lighter)" offset="0%"></stop>
            <stop stop-color="var(--text-color)" offset="100%"></stop>
        </linearGradient>
    </defs>
    <g stroke="none" stroke-width="1" fill="none" fill-rule="evenodd">
        <g fill="url(#cloud-gradient)" fill-rule="nonzero">
            <path d="M11.887782,0.000787 C8.229236,0.052186 5.286125,2.615973 4.602131,6.491663 L4.582359,6.607909 L4.584733,6.607584 C3.431459,6.774126 2.339568,7.225269 1.518069,7.92932 C0.545391,8.762935 0,9.902336 0,11.272727 C0,14.277618 2.231029,16 5.4375,16 L17.625,16 C21.196009,16 24,13.531003 24,10.181818 C24,7.058185 21.778817,4.921923 18.560614,4.426276 C18.558755,4.42599 18.557226,4.424784 18.556569,4.423111 C18.085701,3.233227 17.276252,2.154927 16.221364,1.367371 C15.040196,0.485537 13.602514,0 12,0 L11.887782,0.000787 Z"></path>
        </g>
    </g>
</svg>