<?xml version="1.0" encoding="UTF-8"?>
<svg width="24px" height="24px" viewBox="0 0 24 24" version="1.1" xmlns="http://www.w3.org/2000/svg" xmlns:xlink="http://www.w3.org/1999/xlink">
    <title>Group</title>
    <g id="Page-1" stroke="none" stroke-width="1" fill="none" fill-rule="evenodd">
        <g id="Light" transform="translate(-137.000000, -348.000000)" fill-rule="nonzero">
            <g id="Group" transform="translate(137.000000, 348.000000)">
                <path d="M22.1367152,12.3576061 C22.0846204,12.3592788 22.0359723,12.3834111 22.0029943,12.423381 L21.9992166,12.4281164 L18.1866762,17.1474675 L18.1841355,17.1507018 C18.1145938,17.2417681 18.1791922,17.3744864 18.2948467,17.3744864 L20.3543991,17.3744861 L19.8361959,20.2278606 C19.8267981,20.2812042 19.8412835,20.3352279 19.8756218,20.3761143 C19.9067315,20.4131564 19.9513076,20.4360165 19.9992736,20.4398432 L20.0020335,20.4400359 L20.0080933,20.4403046 C20.0099343,20.4404145 20.0117765,20.4404145 20.0136189,20.4404145 L20.0193002,20.440325 C20.0722095,20.4386553 20.1216944,20.4137315 20.1546085,20.3722719 L20.1554759,20.3711346 L23.968768,15.6504552 L23.9713087,15.6472208 C24.0408446,15.5561536 23.9762452,15.4234412 23.8605938,15.4234412 L21.8011629,15.423441 L22.321833,12.5698308 C22.3223164,12.5671809 22.3227232,12.5645176 22.3230525,12.5618441 C22.3294437,12.5099641 22.3132587,12.4578359 22.2786195,12.418735 C22.2472391,12.3833127 22.203414,12.3616655 22.1565119,12.3580513 L22.1538451,12.3578716 L22.1478548,12.3576155 L22.1425173,12.357513 L22.1367152,12.3576061 Z" id="Path" fill="var(--yellow)"></path>
                <path d="M4.10562722,12.3576061 C4.05353228,12.3592788 4.00488425,12.3834111 3.97190619,12.423381 L3.96812853,12.4281164 L0.155588228,17.1474675 L0.153047422,17.1507018 C0.0835056863,17.2417681 0.148104167,17.3744864 0.263758587,17.3744864 L2.32331112,17.3744861 L1.80510788,20.2278606 C1.79570991,20.2812042 1.81019535,20.3352279 1.84453375,20.3761143 C1.87564341,20.4131564 1.92021946,20.4360165 1.96818548,20.4398432 L1.97094541,20.4400359 L1.97700525,20.4403046 C1.97884621,20.4404145 1.98068845,20.4404145 1.98253087,20.4404145 L1.98821222,20.440325 C2.04112145,20.4386553 2.09060633,20.4137315 2.12352048,20.3722719 L2.12438784,20.3711346 L5.93768003,15.6504552 L5.94022063,15.6472208 C6.00975652,15.5561536 5.94515718,15.4234412 5.82950568,15.4234412 L3.77007489,15.423441 L4.29074491,12.5698308 C4.2912284,12.5671809 4.29163507,12.5645176 4.29196443,12.5618441 C4.29835561,12.5099641 4.28217065,12.4578359 4.24753138,12.418735 C4.21615108,12.3833127 4.17232589,12.3616655 4.12542381,12.3580513 L4.12275716,12.3578716 L4.11676679,12.3576155 L4.11142912,12.357513 L4.10562722,12.3576061 Z" id="Path" fill="var(--yellow)"></path>
                <path d="M11.8877818,0.00078735 C8.22923571,0.05218559 5.28612469,2.61597294 4.60213104,6.4916629 L4.58235938,6.6079091 L4.58473302,6.6075843 C3.4314586,6.7741256 2.33956763,7.2252693 1.51806852,7.9293198 C0.545390822,8.762935 0,9.9023359 0,11.2727273 C0,14.2776178 2.23102876,16 5.4375,16 L17.625,16 C21.1960089,16 24,13.5310033 24,10.1818182 C24,7.0581848 21.7788166,4.92192325 18.5606141,4.42627581 C18.5587553,4.42598961 18.5572256,4.42478446 18.5565687,4.42311089 C18.0857008,3.23322667 17.2762515,2.15492681 16.2213641,1.36737131 C15.0401957,0.48553716 13.6025139,0 12,0 L11.8877818,0.00078735 Z" fill="var(--light-grey)"></path>
                <path d="M13.0681242,10.4923755 C12.9849938,10.4950262 12.907364,10.5332665 12.8547395,10.5966036 L12.8487113,10.6041073 L6.76487041,18.0824636 L6.76081594,18.0875888 C6.64984509,18.2318938 6.75292776,18.4422012 6.9374827,18.4422012 L10.2240027,18.4422007 L9.39708267,22.9637018 C9.38208584,23.0482311 9.40520093,23.1338376 9.45999629,23.1986271 C9.5096393,23.2573245 9.58077139,23.2935489 9.65731287,23.2996128 L9.66171703,23.299918 L9.67138692,23.3003439 C9.67432464,23.3005181 9.67726436,23.3005181 9.68020443,23.3005181 L9.68927044,23.3003761 C9.77370007,23.2977305 9.8526653,23.2582359 9.90518779,23.1925383 L9.9065719,23.1907362 L15.9916126,15.7102749 L15.9956667,15.7051496 C16.1066284,15.5608432 16.0035442,15.3505451 15.8189939,15.3505451 L12.5326683,15.3505447 L13.3635247,10.8286701 C13.3642963,10.824471 13.3649453,10.8202507 13.3654708,10.8160142 C13.3756694,10.7338044 13.3498423,10.6512012 13.294567,10.5892413 C13.244492,10.5331107 13.1745581,10.4988081 13.0997144,10.493081 L13.0954591,10.4927963 L13.0859,10.4923905 L13.0773824,10.492228 L13.0681242,10.4923755 Z" id="Path" fill="var(--yellow)"></path>
            </g>
        </g>
    </g>
</svg>