<?xml version="1.0" encoding="UTF-8"?>
<svg width="24px" height="25px" viewBox="0 0 24 25" version="1.1" xmlns="http://www.w3.org/2000/svg" xmlns:xlink="http://www.w3.org/1999/xlink">
    <defs>
        <linearGradient x1="25.8455424%" y1="4.37897805%" x2="50%" y2="100%" id="cloud-sun-gradient">
            <stop stop-color="var(--yellow)" offset="0%"></stop>
            <stop stop-color="var(--orange)" offset="100%"></stop>
        </linearGradient>
        <radialGradient cx="104.353554%" cy="-26.5163924%" fx="104.353554%" fy="-26.5163924%" r="107.609936%" gradientTransform="translate(1.043536,-0.265164),scale(0.666667,1.000000),rotate(94.671260),translate(-1.043536,0.265164)" id="sun-cloud-gradient">
            <stop stop-color="var(--yellow)" offset="0%"></stop>
            <stop stop-color="var(--light-grey)" offset="100%"></stop>
        </radialGradient>
        <linearGradient x1="50%" y1="69.063903%" x2="50%" y2="360.847343%" id="cloud-shadow">
            <stop stop-color="transparent" offset="0%"></stop>
            <stop stop-color="var(--dark-grey)" offset="100%" stop-opacity="0.5"></stop>
        </linearGradient>
    </defs>
    <g stroke="none" stroke-width="1" fill="none" fill-rule="evenodd">
        <g transform="translate(0.000000, 0.726694)" fill-rule="nonzero">
            <path d="M18.3233057,5.04661172 C20.3943735,5.04661172 22.0733057,6.72554391 22.0733057,8.79661172 C22.0733057,10.8676795 20.3943735,12.5466117 18.3233057,12.5466117 C16.2522379,12.5466117 14.5733057,10.8676795 14.5733057,8.79661172 C14.5733057,6.72554391 16.2522379,5.04661172 18.3233057,5.04661172 Z M18.0733057,13.5466117 C18.3494481,13.5466117 18.5733057,13.7704694 18.5733057,14.0466117 C18.5733057,14.3227541 18.3494481,14.5466117 18.0733057,14.5466117 C17.7971633,14.5466117 17.5733057,14.3227541 17.5733057,14.0466117 C17.5733057,13.7704694 17.7971633,13.5466117 18.0733057,13.5466117 Z M22.0733057,12.0466117 C22.3494481,12.0466117 22.5733057,12.2704694 22.5733057,12.5466117 C22.5733057,12.8227541 22.3494481,13.0466117 22.0733057,13.0466117 C21.7971633,13.0466117 21.5733057,12.8227541 21.5733057,12.5466117 C21.5733057,12.2704694 21.7971633,12.0466117 22.0733057,12.0466117 Z M14.0733057,12.0466117 C14.3494481,12.0466117 14.5733057,12.2704694 14.5733057,12.5466117 C14.5733057,12.8227541 14.3494481,13.0466117 14.0733057,13.0466117 C13.7971633,13.0466117 13.5733057,12.8227541 13.5733057,12.5466117 C13.5733057,12.2704694 13.7971633,12.0466117 14.0733057,12.0466117 Z M23.5733057,8.04661172 C23.8494481,8.04661172 24.0733057,8.27046935 24.0733057,8.54661172 C24.0733057,8.8227541 23.8494481,9.04661172 23.5733057,9.04661172 C23.2971633,9.04661172 23.0733057,8.8227541 23.0733057,8.54661172 C23.0733057,8.27046935 23.2971633,8.04661172 23.5733057,8.04661172 Z M12.5733057,8.04661172 C12.8494481,8.04661172 13.0733057,8.27046935 13.0733057,8.54661172 C13.0733057,8.8227541 12.8494481,9.04661172 12.5733057,9.04661172 C12.2971633,9.04661172 12.0733057,8.8227541 12.0733057,8.54661172 C12.0733057,8.27046935 12.2971633,8.04661172 12.5733057,8.04661172 Z M22.0733057,4.04661172 C22.3494481,4.04661172 22.5733057,4.27046935 22.5733057,4.54661172 C22.5733057,4.8227541 22.3494481,5.04661172 22.0733057,5.04661172 C21.7971633,5.04661172 21.5733057,4.8227541 21.5733057,4.54661172 C21.5733057,4.27046935 21.7971633,4.04661172 22.0733057,4.04661172 Z M14.0733057,4.04661172 C14.3494481,4.04661172 14.5733057,4.27046935 14.5733057,4.54661172 C14.5733057,4.8227541 14.3494481,5.04661172 14.0733057,5.04661172 C13.7971633,5.04661172 13.5733057,4.8227541 13.5733057,4.54661172 C13.5733057,4.27046935 13.7971633,4.04661172 14.0733057,4.04661172 Z M18.0733057,2.54661172 C18.3494481,2.54661172 18.5733057,2.77046935 18.5733057,3.04661172 C18.5733057,3.3227541 18.3494481,3.54661172 18.0733057,3.54661172 C17.7971633,3.54661172 17.5733057,3.3227541 17.5733057,3.04661172 C17.5733057,2.77046935 17.7971633,2.54661172 18.0733057,2.54661172 Z" fill="url(#cloud-sun-gradient)" transform="translate(18.073306, 8.546612) rotate(14.000000) translate(-18.073306, -8.546612) "></path>
            <path d="M11.8877818,5.27409307 C8.22923571,5.32549131 5.28612469,7.88927866 4.60213104,11.7649686 L4.58235938,11.8812148 L4.58473302,11.88089 C3.4314586,12.0474313 2.33956763,12.498575 1.51806852,13.2026255 C0.545390822,14.0362407 0,15.1756416 0,16.546033 C0,19.5509235 2.23102876,21.2733057 5.4375,21.2733057 L17.625,21.2733057 C21.1960089,21.2733057 24,18.804309 24,15.4551239 C24,12.3314905 21.7788166,10.195229 18.5606141,9.69958153 C18.5587553,9.69929533 18.5572256,9.69809018 18.5565687,9.69641661 C18.0857008,8.50653239 17.2762515,7.42823253 16.2213641,6.64067703 C15.0401957,5.75884288 13.6025139,5.27330572 12,5.27330572 L11.8877818,5.27409307 Z" fill="url(#sun-cloud-gradient)"></path>
            <path d="M11.8877818,5.27409307 C8.22923571,5.32549131 5.28612469,7.88927866 4.60213104,11.7649686 L4.58235938,11.8812148 L4.58473302,11.88089 C3.4314586,12.0474313 2.33956763,12.498575 1.51806852,13.2026255 C0.545390822,14.0362407 0,15.1756416 0,16.546033 C0,19.5509235 2.23102876,21.2733057 5.4375,21.2733057 L17.625,21.2733057 C21.1960089,21.2733057 24,18.804309 24,15.4551239 C24,12.3314905 21.7788166,10.195229 18.5606141,9.69958153 C18.5587553,9.69929533 18.5572256,9.69809018 18.5565687,9.69641661 C18.0857008,8.50653239 17.2762515,7.42823253 16.2213641,6.64067703 C15.0401957,5.75884288 13.6025139,5.27330572 12,5.27330572 L11.8877818,5.27409307 Z" fill="url(#cloud-shadow)"></path>
        </g>
    </g>
</svg>