<?xml version="1.0" encoding="UTF-8"?>
<svg width="24px" height="24px" viewBox="0 0 24 24" version="1.1" xmlns="http://www.w3.org/2000/svg" xmlns:xlink="http://www.w3.org/1999/xlink">
    <title>Shape</title>
    <defs>
        <linearGradient x1="50%" y1="100%" x2="50%" y2="0%" id="linearGradient-1">
            <stop stop-color="var(--orange)" offset="0%"></stop>
            <stop stop-color="var(--yellow)" offset="100%"></stop>
        </linearGradient>
    </defs>
    <g id="Page-1" stroke="none" stroke-width="1" fill="none" fill-rule="evenodd">
        <g id="weather-icon-health-80plus" fill="url(#linearGradient-1)" fill-rule="nonzero">
            <path d="M12.10084,4.840336 C16.110706,4.840336 19.361345,8.090975 19.361345,12.10084 C19.361345,16.110706 16.110706,19.361345 12.10084,19.361345 C8.090975,19.361345 4.840336,16.110706 4.840336,12.10084 C4.840336,8.090975 8.090975,4.840336 12.10084,4.840336 Z M12,21.579832 C12.668311,21.579832 13.210084,22.121605 13.210084,22.789916 C13.210084,23.458227 12.668311,24 12,24 C11.331689,24 10.789916,23.458227 10.789916,22.789916 C10.789916,22.121605 11.331689,21.579832 12,21.579832 Z M19.563025,18.352941 C20.231336,18.352941 20.773109,18.894714 20.773109,19.563025 C20.773109,20.231336 20.231336,20.773109 19.563025,20.773109 C18.894714,20.773109 18.352941,20.231336 18.352941,19.563025 C18.352941,18.894714 18.894714,18.352941 19.563025,18.352941 Z M4.436975,18.352941 C5.105286,18.352941 5.647059,18.894714 5.647059,19.563025 C5.647059,20.231336 5.105286,20.773109 4.436975,20.773109 C3.768664,20.773109 3.226891,20.231336 3.226891,19.563025 C3.226891,18.894714 3.768664,18.352941 4.436975,18.352941 Z M22.789916,10.789916 C23.458227,10.789916 24,11.331689 24,12 C24,12.668311 23.458227,13.210084 22.789916,13.210084 C22.121605,13.210084 21.579832,12.668311 21.579832,12 C21.579832,11.331689 22.121605,10.789916 22.789916,10.789916 Z M1.210084,10.789916 C1.878395,10.789916 2.420168,11.331689 2.420168,12 C2.420168,12.668311 1.878395,13.210084 1.210084,13.210084 C0.541773,13.210084 0,12.668311 0,12 C0,11.331689 0.541773,10.789916 1.210084,10.789916 Z M19.563025,3.226891 C20.231336,3.226891 20.773109,3.768664 20.773109,4.436975 C20.773109,5.105286 20.231336,5.647059 19.563025,5.647059 C18.894714,5.647059 18.352941,5.105286 18.352941,4.436975 C18.352941,3.768664 18.894714,3.226891 19.563025,3.226891 Z M4.436975,3.226891 C5.105286,3.226891 5.647059,3.768664 5.647059,4.436975 C5.647059,5.105286 5.105286,5.647059 4.436975,5.647059 C3.768664,5.647059 3.226891,5.105286 3.226891,4.436975 C3.226891,3.768664 3.768664,3.226891 4.436975,3.226891 Z M12,0 C12.668311,0 13.210084,0.541773 13.210084,1.210084 C13.210084,1.878395 12.668311,2.420168 12,2.420168 C11.331689,2.420168 10.789916,1.878395 10.789916,1.210084 C10.789916,0.541773 11.331689,0 12,0 Z" id="Shape"></path>
        </g>
    </g>
</svg>