<?xml version="1.0" encoding="UTF-8"?>
<svg width="24px" height="24px" viewBox="0 0 24 24" version="1.1" xmlns="http://www.w3.org/2000/svg" xmlns:xlink="http://www.w3.org/1999/xlink">
    <title>Shape</title>
    <g id="Page-1" stroke="none" stroke-width="1" fill="none" fill-rule="evenodd">
        <g id="Light" transform="translate(-137.000000, -147.000000)" fill="#FE820A" fill-rule="nonzero">
            <path d="M149.10084,151.840336 C153.110706,151.840336 156.361345,155.090975 156.361345,159.10084 C156.361345,163.110706 153.110706,166.361345 149.10084,166.361345 C145.090975,166.361345 141.840336,163.110706 141.840336,159.10084 C141.840336,155.090975 145.090975,151.840336 149.10084,151.840336 Z M149,168.579832 C149.668311,168.579832 150.210084,169.121605 150.210084,169.789916 C150.210084,170.458227 149.668311,171 149,171 C148.331689,171 147.789916,170.458227 147.789916,169.789916 C147.789916,169.121605 148.331689,168.579832 149,168.579832 Z M156.563025,165.352941 C157.231336,165.352941 157.773109,165.894714 157.773109,166.563025 C157.773109,167.231336 157.231336,167.773109 156.563025,167.773109 C155.894714,167.773109 155.352941,167.231336 155.352941,166.563025 C155.352941,165.894714 155.894714,165.352941 156.563025,165.352941 Z M141.436975,165.352941 C142.105286,165.352941 142.647059,165.894714 142.647059,166.563025 C142.647059,167.231336 142.105286,167.773109 141.436975,167.773109 C140.768664,167.773109 140.226891,167.231336 140.226891,166.563025 C140.226891,165.894714 140.768664,165.352941 141.436975,165.352941 Z M159.789916,157.789916 C160.458227,157.789916 161,158.331689 161,159 C161,159.668311 160.458227,160.210084 159.789916,160.210084 C159.121605,160.210084 158.579832,159.668311 158.579832,159 C158.579832,158.331689 159.121605,157.789916 159.789916,157.789916 Z M138.210084,157.789916 C138.878395,157.789916 139.420168,158.331689 139.420168,159 C139.420168,159.668311 138.878395,160.210084 138.210084,160.210084 C137.541773,160.210084 137,159.668311 137,159 C137,158.331689 137.541773,157.789916 138.210084,157.789916 Z M156.563025,150.226891 C157.231336,150.226891 157.773109,150.768664 157.773109,151.436975 C157.773109,152.105286 157.231336,152.647059 156.563025,152.647059 C155.894714,152.647059 155.352941,152.105286 155.352941,151.436975 C155.352941,150.768664 155.894714,150.226891 156.563025,150.226891 Z M141.436975,150.226891 C142.105286,150.226891 142.647059,150.768664 142.647059,151.436975 C142.647059,152.105286 142.105286,152.647059 141.436975,152.647059 C140.768664,152.647059 140.226891,152.105286 140.226891,151.436975 C140.226891,150.768664 140.768664,150.226891 141.436975,150.226891 Z M149,147 C149.668311,147 150.210084,147.541773 150.210084,148.210084 C150.210084,148.878395 149.668311,149.420168 149,149.420168 C148.331689,149.420168 147.789916,148.878395 147.789916,148.210084 C147.789916,147.541773 148.331689,147 149,147 Z" id="Shape"></path>
        </g>
    </g>
</svg>