<?xml version="1.0" encoding="UTF-8"?>
<svg width="448px" height="448px" viewBox="0 0 448 448" version="1.1" xmlns="http://www.w3.org/2000/svg" xmlns:xlink="http://www.w3.org/1999/xlink">
    <g stroke="none" stroke-width="1" fill="none" fill-rule="evenodd">
        <g transform="translate(16.000870, 16.000000)" stroke="currentColor" stroke-linecap="round" stroke-linejoin="round" stroke-width="32">
            <path d="M415.09913,64.37 C325.67913,48.33 288.70913,36.45 207.99913,0 C127.28913,36.45 90.31913,48.33 0.89912995,64.37 C-15.30087,321.13 192.57913,409.79 207.99913,416 C223.41913,409.79 431.29913,321.13 415.09913,64.37 Z"></path>
        </g>
        <g transform="translate(204.000000, 128.049727)">
            <path d="M14.26,6.00027266 L20,127.950273 L25.73,6.00027266 C25.8015166,4.4246796 25.2215569,2.88907804 24.1263357,1.75413374 C23.0311144,0.619189444 21.5171405,-0.015088392 19.94,2.84217094e-14 L19.94,2.84217094e-14 C18.3819599,0.0149571392 16.8968311,0.66239533 15.8256683,1.79390534 C14.7545055,2.92541534 14.1893544,4.44376572 14.26,6.00027266 L14.26,6.00027266 Z" stroke="currentColor" stroke-width="32" stroke-linecap="round" stroke-linejoin="round"></path>
            <path d="M20,207.860273 C8.954305,207.860273 0,198.905968 0,187.860273 C0,176.814578 8.954305,167.860273 20,167.860273 C31.045695,167.860273 40,176.814578 40,187.860273 C40,198.905968 31.045695,207.860273 20,207.860273 Z" fill="currentColor" fill-rule="nonzero"></path>
        </g>
    </g>
</svg>