<?xml version="1.0" encoding="UTF-8"?>
<svg width="226px" height="312px" viewBox="0 0 226 312" version="1.1" xmlns="http://www.w3.org/2000/svg" xmlns:xlink="http://www.w3.org/1999/xlink">
    <title>Jenkins_logo</title>
    <g id="Page-1" stroke="none" stroke-width="1" fill="none" fill-rule="evenodd">
        <g id="g3393" transform="translate(112.771250, 155.927687) scale(-1, 1) rotate(-180.000000) translate(-112.771250, -155.927687) translate(0.000000, 0.000000)">
            <path d="M222.1475,161.580211 C222.1475,99.7942108 173.17875,49.7062108 112.7725,49.7062108 C52.36725,49.7062108 3.3984375,99.7942108 3.3984375,161.580211 C3.3984375,223.367711 52.36725,273.456461 112.7725,273.456461 C173.17875,273.456461 222.1475,223.367711 222.1475,161.580211" id="path22" fill="#D33833"></path>
            <path d="M7.855475,133.872711 C7.855475,133.872711 -0.0625,250.538961 107.438,253.872711 L99.9385,266.372711 L41.6055,246.788961 L24.9385,227.622711 L10.355475,199.705211 L2.0214875,167.205211 L4.5214875,145.538961" id="path24" fill="#EF3D3A" fill-rule="nonzero"></path>
            <path d="M37.860375,237.898961 C18.670375,218.263961 6.7954125,191.153961 6.7954125,161.162711 L6.7954125,161.162711 C6.7954125,131.177711 18.670375,104.064211 37.860375,84.4328358 L37.860375,84.4328358 C57.059625,64.8014608 83.519,52.6877108 112.771,52.6877108 L112.771,52.6877108 C142.02375,52.6877108 168.485,64.8014608 187.6825,84.4328358 L187.6825,84.4328358 C206.87125,104.064211 218.74875,131.177711 218.74875,161.162711 L218.74875,161.162711 C218.74875,191.153961 206.87125,218.263961 187.6825,237.898961 L187.6825,237.898961 C168.485,257.526461 142.02375,269.640211 112.771,269.642711 L112.771,269.642711 C83.519,269.640211 57.059625,257.526461 37.860375,237.898961 L37.860375,237.898961 Z M33.002875,79.6838358 C12.608375,100.541211 0,129.366461 0,161.162711 L0,161.162711 C0,192.963961 12.608375,221.786461 33.002875,242.645211 L33.002875,242.645211 C53.392625,263.507711 81.61725,276.438961 112.771,276.435212 L112.771,276.435212 C143.925,276.438961 172.1525,263.507711 192.53875,242.645211 L192.53875,242.645211 C212.935,221.786461 225.545,192.961461 225.5425,161.162711 L225.5425,161.162711 C225.545,129.366461 212.935,100.541211 192.53875,79.6838358 L192.53875,79.6838358 C172.1525,58.8224608 143.925,45.8928358 112.771,45.8928358 L112.771,45.8928358 C81.61725,45.8928358 53.392625,58.8224608 33.002875,79.6838358 L33.002875,79.6838358" id="path26" fill="#231F20" fill-rule="nonzero"></path>
            <polyline id="path28" fill="#F0D6B7" points="158.81375 160.960211 142.14625 158.460211 119.646 155.960211 105.062 155.543961 90.896 155.960211 80.062 159.293961 70.4785 169.710211 62.9785 190.960211 61.312 195.543961 51.312 198.876461 45.4785 208.460211 41.312 222.210211 45.896 234.293961 56.7285 238.043961 65.4785 233.876461 69.646 224.710211 74.646 225.543961 76.312 227.626461 74.646 237.210211 74.2285 249.293961 76.7285 265.960211 76.630875 275.480211 84.2285 287.626461 97.562 297.210211 120.896 307.210211 146.72875 303.460211 169.22875 287.210211 179.64625 270.543961 186.3125 258.460211 187.97875 228.460211 182.97875 202.626461 173.8125 179.710211 165.0625 167.626461"></polyline>
            <polyline id="path30" fill="#335061" points="144.64625 88.8777108 85.062 86.3777108 85.062 76.3777108 90.062 41.3777108 87.562 38.4602108 45.896 52.6277108 42.9785 57.6277108 38.812 104.710211 29.23 133.043961 27.146 139.710211 60.4785 162.626461 70.896 166.793961 80.062 155.543961 87.9785 148.460211 97.146 145.543961 101.312 144.293961 106.312 122.627711 110.062 118.044211 119.646 121.377711 112.9785 108.460211 149.22875 91.3777108 144.64625 88.8777108"></polyline>
            <polyline id="path32" fill="#6D6B6D" points="45.896 234.293961 56.7285 238.043961 65.4785 233.876461 69.646 224.710211 74.646 225.543961 75.896 230.543961 73.396 240.126461 75.896 263.043961 73.812 275.543961 81.312 284.293961 97.562 297.210211 92.9785 303.460211 70.062 292.210211 60.4785 284.710211 55.062 273.043961 46.7285 261.793961 44.2285 248.460211 45.896 234.293961"></polyline>
            <path d="M62.9785,273.460211 C62.9785,273.460211 69.2285,288.876461 94.2285,296.376461 C119.2285,303.876461 95.4785,301.793961 95.4785,301.793961 L68.396,291.376461 L57.9785,280.960211 L53.396,272.626461 L62.9785,273.460211" id="path34" fill="#DCD9D8"></path>
            <path d="M50.4785,237.210211 C50.4785,237.210211 41.7285,266.377711 75.062,270.543961 L73.812,275.543961 L50.896,270.126461 L44.2285,248.460211 L45.896,234.293961 L50.4785,237.210211" id="path36" fill="#DCD9D8"></path>
            <path d="M63.812,198.460211 L69.267625,203.746461 C69.267625,203.746461 71.73,203.460211 72.146,200.543961 C72.562,197.626461 73.812,171.376461 91.7285,157.208961 C93.36275,155.916461 78.396,159.293961 78.396,159.293961 L65.062,180.126461" id="path38" fill="#F7E4CD"></path>
            <path d="M140.48125,206.376461 C140.48125,206.376461 141.4525,219.006461 144.85375,218.035211 C148.255,217.063961 148.255,213.662711 148.255,213.662711 C148.255,213.662711 139.995,208.318961 140.48125,206.376461" id="path40" fill="#F7E4CD"></path>
            <path d="M175.0625,252.626461 C175.0625,252.626461 168.195,251.176461 167.5625,245.126461 C166.93,239.075211 175.0625,243.876461 176.3125,244.292711" id="path42" fill="#F7E4CD" fill-rule="nonzero"></path>
            <path d="M124.646,252.208961 C124.646,252.208961 115.4785,250.958961 115.4785,245.126461 C115.4785,239.292711 125.89625,239.708961 128.8125,242.208961" id="path44" fill="#F7E4CD" fill-rule="nonzero"></path>
            <path d="M67.9785,225.126461 C67.9785,225.126461 52.1445,234.710211 50.4785,225.542711 C48.812,216.376461 45.061,209.708961 52.9785,200.126461 L47.562,201.792711 L42.562,214.708961 L40.896,227.208961 L50.4785,237.210211 L61.312,236.376461 L67.562,231.376461 L67.9785,225.126461" id="path46" fill="#F7E4CD"></path>
            <path d="M75.4785,251.376461 C75.4785,251.376461 82.562,288.042711 118.396,295.126461 C147.8975,300.957711 163.395,293.876461 169.22875,287.210211 C169.22875,287.210211 142.97875,318.458961 117.9785,308.876461 C92.9785,299.292711 74.646,281.792711 75.062,270.543961 C75.7715,251.383961 75.4785,251.376461 75.4785,251.376461" id="path48" fill="#F7E4CD"></path>
            <path d="M172.14625,283.043961 C172.14625,283.043961 160.06375,283.460211 159.64625,272.626461 C159.64625,272.626461 159.645,270.960211 160.47875,269.293961 C160.47875,269.293961 170.06375,280.127711 175.89625,274.293961" id="path50" fill="#F7E4CD"></path>
            <path d="M119.235875,268.165211 C119.235875,268.165211 117.15575,284.793961 102.9785,275.126461 C93.812,268.876461 94.646,260.126461 96.312,258.460211 C97.9785,256.792711 97.525375,253.436461 98.794,255.740211 C100.062,258.043961 99.6445,265.543961 104.2285,267.626461 C108.812,269.710211 116.325625,272.037711 119.235875,268.165211" id="path52" fill="#F7E4CD"></path>
            <path d="M80.062,155.543961 L40.896,138.043961 C40.896,138.043961 57.146,73.4602108 48.812,53.4602108 L42.9785,55.5427108 L42.562,80.1267108 L31.73,126.792711 L27.146,139.710211 L67.9785,167.208961 L80.062,155.543961" id="path54" fill="#49728B"></path>
            <path d="M84.089375,119.822461 L89.646,113.042711 L89.646,88.0427108 L82.9785,88.0427108 C82.9785,88.0427108 82.146,105.542711 82.146,107.626711 C82.146,109.710211 82.9785,117.210211 82.9785,117.210211" id="path56" fill="#49728B"></path>
            <polyline id="path58" fill="#49728B" points="84.2285 84.2927108 65.4785 83.4602108 70.896 79.7102108 84.2285 77.6267108"></polyline>
            <polyline id="path60" fill="#335061" points="148.39625 88.4602108 163.8125 88.8767108 167.5625 50.5427108 151.72875 48.4602108 148.39625 88.4602108"></polyline>
            <path d="M152.5625,88.4602108 L175.89625,89.7102108 C175.89625,89.7102108 185.47875,113.876711 185.47875,115.126711 C185.47875,116.376711 193.8125,150.126461 193.8125,150.126461 L175.0625,169.708961 L171.3125,173.042711 L161.3125,163.042711 L161.3125,124.292711 L152.5625,88.4602108" id="path62" fill="#335061"></path>
            <path d="M162.97875,91.3767108 L148.39625,88.4602108 L150.47875,76.7927108 C155.895,74.2927108 165.0625,80.9602108 165.0625,80.9602108" id="path64" fill="#49728B"></path>
            <polyline id="path66" fill="#49728B" points="163.39625 164.292711 192.5625 142.626461 193.39625 152.626461 171.3125 173.042711 163.39625 164.292711"></polyline>
            <polyline id="path68" fill="#FFFFFF" points="98.6885 6.3727733 90.062 41.3777108 85.7715 67.2062108 85.062 86.3777108 124.1055 88.4562108 148.39625 88.4602108 146.1875 44.7062108 149.9375 10.9562608 149.52125 4.7062608 117.8555 2.2062608 98.6885 6.3727733"></polyline>
            <path d="M142.97875,88.8767108 C142.97875,88.8767108 140.89625,45.5427108 147.14625,14.7102108 C147.14625,14.7102108 134.64625,6.7926858 116.312,4.7101733 L151.3125,5.9601733 L155.47875,8.4601733 L150.47875,76.7927108 L149.22875,91.3777108" id="path70" fill="#DCD9D8"></path>
            <polyline id="path72" fill="#FFFFFF" points="168.2725 53.8727108 184.5225 58.4562108 215.355 60.1227108 219.93875 74.2888358 211.605 98.8727108 202.0225 100.122711 188.68875 95.9562108 175.89625 89.7102108 169.105 90.9562108 163.8125 88.8767108"></polyline>
            <path d="M167.97875,62.2102108 C167.97875,62.2102108 178.81125,67.2092108 180.47875,66.7927108 L175.89625,89.7102108 L181.3125,91.7927108 C181.3125,91.7927108 185.0625,70.1267108 185.0625,67.6267108 C185.0625,67.6267108 208.395,66.3767108 210.47875,66.3767108 C210.47875,66.3767108 215.47875,75.9602108 214.22875,85.9602108 L218.8125,72.6267108 L219.22875,65.1267108 L212.5625,55.1267108 L205.0625,53.4602108 L192.5625,53.8767108 L188.39625,59.2927108 L173.8125,57.2102108 L169.22875,55.5427108" id="path74" fill="#DCD9D8"></path>
            <path d="M151.605,91.7888358 L142.43875,115.122711 L132.855,128.872711 C132.855,128.872711 134.9375,134.706461 137.855,134.706461 C140.7725,134.706461 147.43875,134.706461 147.43875,134.706461 L156.605,131.372711 L155.7725,115.956211 L151.605,91.7888358" id="path76" fill="#FFFFFF" fill-rule="nonzero"></path>
            <path d="M153.39625,99.7102108 C153.39625,99.7102108 141.72875,122.209211 141.72875,125.542711 C141.72875,125.542711 143.81125,130.542711 146.72875,129.292711 C149.64625,128.042711 155.89625,124.710211 155.89625,124.710211 L155.89625,132.626461 L141.72875,135.543961 L132.14625,134.293961 L148.39625,95.9602108 L151.72875,95.5427108" id="path78" fill="#DCD9D8"></path>
            <polyline id="path80" fill="#FFFFFF" fill-rule="nonzero" points="102.439 154.705211 90.896 155.960211 80.062 159.293961 80.062 155.543961 85.3555 149.706461 102.022 142.206461"></polyline>
            <path d="M83.8135,153.456461 C83.8135,153.456461 96.731,148.038961 100.8975,149.288961 L101.312,144.293961 L89.6475,146.788961 L82.5635,151.788961 L83.8135,153.456461" id="path82" fill="#DCD9D8"></path>
            <path d="M168.2275,133.287711 C161.1575,133.495211 154.77,134.335211 149.1775,135.912711 C149.5575,138.205211 148.84625,140.455211 149.4175,142.106461 C150.97625,143.228961 153.58875,143.211461 155.945,143.475211 C153.9075,144.476461 151.045,144.872711 148.69375,144.293961 C148.63875,145.885211 147.925,146.871461 147.4925,148.116461 C151.4675,149.535211 160.85125,158.836461 166.13,155.756461 C168.645,154.291461 169.71375,145.923961 169.90875,141.855211 C170.07125,138.480211 169.6025,135.075211 168.2275,133.287711" id="path84" fill="#D33833"></path>
            <path d="M168.2275,133.287711 C161.1575,133.495211 154.77,134.335211 149.1775,135.912711 C149.5575,138.205211 148.84625,140.455211 149.4175,142.106461 C150.97625,143.228961 153.58875,143.211461 155.945,143.475211 C153.9075,144.476461 151.045,144.872711 148.69375,144.293961 C148.63875,145.885211 147.925,146.871461 147.4925,148.116461 C151.4675,149.535211 160.85125,158.836461 166.13,155.756461 C168.645,154.291461 169.71375,145.923961 169.90875,141.855211 C170.07125,138.480211 169.6025,135.075211 168.2275,133.287711 Z" id="path86" stroke="#D33833" stroke-width="2.5"></path>
            <path d="M134.41875,144.845211 C134.4,144.310211 134.3775,143.771461 134.35625,143.231461 C132.14875,141.781461 128.585,141.798961 126.1625,140.580211 C129.73375,140.423961 132.545,139.563961 134.9775,138.351461 C134.92375,137.003961 134.8725,135.657711 134.82,134.310211 C130.77375,131.540211 127.0775,127.415211 122.3135,124.817586 C120.061,123.589086 112.15575,120.427961 109.75925,120.986586 C108.403375,121.301461 108.28125,122.984086 107.73925,124.570086 C106.5845,127.966461 103.92575,133.372711 103.693875,138.485211 C103.3985,144.942711 102.746625,155.765211 109.705625,154.435211 C115.319875,153.363961 121.849625,150.777711 126.19625,148.402711 C128.8525,146.950211 130.38875,145.155211 134.41875,144.845211" id="path88" fill="#D33833"></path>
            <path d="M134.41875,144.845211 C134.4,144.310211 134.3775,143.771461 134.35625,143.231461 C132.14875,141.781461 128.585,141.798961 126.1625,140.580211 C129.73375,140.423961 132.545,139.563961 134.9775,138.351461 C134.92375,137.003961 134.8725,135.657711 134.82,134.310211 C130.77375,131.540211 127.0775,127.415211 122.3135,124.817586 C120.061,123.589086 112.15575,120.427961 109.75925,120.986586 C108.403375,121.301461 108.28125,122.984086 107.73925,124.570086 C106.5845,127.966461 103.92575,133.372711 103.693875,138.485211 C103.3985,144.942711 102.746625,155.765211 109.705625,154.435211 C115.319875,153.363961 121.849625,150.777711 126.19625,148.402711 C128.8525,146.950211 130.38875,145.155211 134.41875,144.845211 L134.41875,144.845211 Z" id="path90" stroke="#D33833" stroke-width="2.5"></path>
            <path d="M138.4375,137.140211 C137.82,140.657711 137.10625,141.661461 137.3825,144.730211 C146.76375,150.985211 148.525,133.986461 138.4375,137.140211" id="path92" fill="#D33833"></path>
            <path d="M138.4375,137.140211 C137.82,140.657711 137.10625,141.661461 137.3825,144.730211 C146.76375,150.985211 148.525,133.986461 138.4375,137.140211 Z" id="path94" stroke="#D33833" stroke-width="2.5"></path>
            <path d="M152.02125,134.288961 C152.02125,134.288961 149.10375,138.456461 151.1875,139.706461 C153.27125,140.956461 155.355,139.705211 156.605,141.788961 C157.855,143.872711 156.605,145.122711 157.02125,147.622711 C157.4375,150.122711 159.5225,150.540211 161.605,150.956461 C163.6875,151.372711 169.5225,152.206461 170.355,150.122711 L167.855,157.622711 L162.855,159.288961 L147.02125,150.122711 L146.1875,145.538961 L146.1875,136.372711" id="path96" fill="#EF3D3A"></path>
            <path d="M108.2715,120.538836 C107.771,127.041461 107.24125,133.535211 106.651875,140.031461 C105.77,149.731461 108.981875,148.038961 117.390125,148.038961 C118.674375,148.038961 125.2975,146.507711 125.77125,145.538961 C128.04375,140.897711 121.97125,141.928961 128.38875,138.428961 C133.80625,135.475211 143.37625,140.222711 141.1875,146.788961 C139.9625,148.248961 134.805,147.243961 132.95625,148.202711 C129.70125,149.890211 126.44625,151.577711 123.190875,153.265211 C119.049375,155.413961 109.4775,158.546461 105.062,155.543961 C93.874,147.935211 105.768125,128.923961 109.75925,120.986586" id="path98" fill="#EF3D3A"></path>
            <path d="M119.235875,268.165211 C107.879375,270.810211 102.236375,263.412711 98.794,255.740211 C95.72025,256.485211 96.943375,260.665211 97.71975,262.795211 C99.7525,268.385211 107.944375,275.826461 114.63775,274.817711 C117.518125,274.383961 121.416,271.750211 119.235875,268.165211" id="path100" fill="#231F20"></path>
            <path d="M174.56875,255.232711 C174.7475,255.225211 174.92875,255.218961 175.1075,255.211461 C177.67375,249.880211 179.895,244.232711 183.1325,239.526461 C180.96375,234.475211 166.71,230.005211 166.93,239.075211 C170.0125,240.422711 175.33375,239.350211 178.06625,241.071461 C176.48625,245.407711 174.20625,249.098961 174.56875,255.232711" id="path102" fill="#231F20"></path>
            <path d="M125.05,255.093961 C127.485,250.630211 128.2775,245.940211 131.73875,242.566461 C133.2975,241.047711 136.32875,239.196461 134.82625,234.972711 C134.475,233.976461 131.90875,231.755211 130.4275,231.318961 C125.01625,229.721461 112.40725,230.988961 116.67725,237.735211 C121.152375,237.526461 127.1675,234.828961 130.5125,238.077711 C127.94375,242.183961 123.36425,250.307711 125.05,255.093961" id="path104" fill="#231F20"></path>
            <path d="M172.5375,209.726461 C164.39,204.492711 155.305,198.801461 141.955,200.121461 C139.1025,202.601461 138.015,208.120211 140.78625,211.765211 C142.22875,209.285211 141.3225,204.723961 145.3425,204.037711 C152.9175,202.741461 161.73375,208.671461 167.1825,210.743961 C170.56125,216.440211 166.89125,218.535211 163.8475,222.201461 C157.61625,229.712711 149.2575,239.022711 149.56125,250.267711 C152.08,252.093961 152.2975,247.480211 152.65875,246.640211 C155.9125,239.025211 164.10125,229.286461 170.0775,222.768961 C171.545,221.163961 173.96125,219.623961 174.23,218.562711 C175.005,215.476461 172.21375,211.778961 172.5375,209.726461" id="path106" fill="#231F20"></path>
            <path d="M65.127,215.236461 C62.57325,216.693961 61.965375,223.113961 58.96725,223.296461 C54.682625,223.556461 55.463875,214.967711 55.481,209.945211 C52.53175,212.622711 52.013125,220.866461 54.17975,225.100211 C51.7105,226.312711 50.607875,223.762711 49.23825,222.863961 C50.9985,235.651461 67.944375,228.795211 65.127,215.236461" id="path108" fill="#231F20"></path>
            <path d="M177.725,204.401461 C173.9325,197.182711 168.5675,189.232711 157.43875,189.001461 C157.2125,191.332711 157.03875,194.880211 157.45125,196.283961 C165.95875,197.101461 171.21125,201.431461 177.725,204.401461" id="path110" fill="#231F20"></path>
            <path d="M124.40825,199.721461 C131.50625,195.988961 144.55125,195.587711 154.19875,195.870211 C154.71625,193.756461 154.70375,191.145211 154.72375,188.567711 C142.3225,187.948961 127.66,191.017711 124.40825,199.721461" id="path112" fill="#231F20"></path>
            <path d="M123.059125,192.761461 C127.9675,180.437711 144.8375,181.856461 159.06375,182.196461 C158.4375,180.596461 157.08,178.706461 155.3925,178.022711 C150.83375,176.167711 138.26,174.760211 131.93125,178.121461 C127.9175,180.255211 125.33875,185.076461 123.139625,187.902711 C122.077625,189.267711 116.7895,192.753961 123.059125,192.761461" id="path114" fill="#231F20"></path>
            <path d="M171.945,124.782961 C166.185,114.917711 160.67375,104.785336 153.84,96.0837108 C156.705,104.507586 157.93125,118.606711 158.36375,129.355211 C164.3575,132.160211 169.49,128.723961 171.945,124.782961" id="path116" fill="#81B0C4"></path>
            <path d="M202.94,89.3263358 C196.49125,88.0353358 191.96,81.7678358 185.66875,82.1700858 C189.12625,87.0442108 195.185,89.0988358 202.94,89.3263358" id="path118" fill="#231F20"></path>
            <path d="M205.785,79.2340858 C200.52875,78.6789608 194.355,77.8278358 189.02375,78.2663358 C191.5475,82.1213358 201.27125,80.7912108 205.785,79.2340858" id="path120" fill="#231F20"></path>
            <path d="M207.60625,70.5329608 C201.69875,70.4049608 194.35625,70.5227108 188.74125,70.9938358 C192.0625,74.5612108 203.775,72.3175858 207.60625,70.5329608" id="path122" fill="#231F20"></path>
            <path d="M160.83,46.7214608 C161.6775,39.3024608 164.61875,31.7853358 164.25,23.6603358 C160.98375,22.5588358 159.1075,21.5954608 154.73125,21.6013091 C154.4225,28.5065858 153.49875,39.0627108 153.775,45.6452108 C155.9275,45.5027108 159.10125,47.1828358 160.83,46.7214608" id="path124" fill="#DCD9D8"></path>
            <path d="M151.30625,156.061461 C148.34,154.125211 145.81375,151.707711 142.965,149.640211 C136.6475,149.327711 133.2,150.077711 128.55875,153.705211 C128.635,153.996461 129.10125,153.866461 129.11875,154.223961 C135.88125,151.210211 144.4775,155.451461 151.30625,156.061461" id="path126" fill="#F0D6B7"></path>
            <path d="M115.805625,109.964086 C117.663625,118.015336 124.943875,122.185211 131.555,126.618961 C138.37875,117.958711 142.52875,106.821461 147.09875,96.0739608 C136.30125,99.3288358 125.26875,104.610086 115.805625,109.964086" id="path128" fill="#81B0C4"></path>
            <path d="M153.775,45.6452108 C153.49875,39.0627108 154.4225,28.5065858 154.73125,21.6013091 C159.1075,21.5954608 160.98375,22.5588358 164.25,23.6603358 C164.61875,31.7853358 161.6775,39.3024608 160.83,46.7214608 C159.10125,47.1828358 155.9275,45.5027108 153.775,45.6452108 L153.775,45.6452108 Z M85.632375,83.0812108 C88.518125,56.5524608 92.69775,34.2517108 100.36375,10.7599733 C117.377875,5.5939608 137.88875,5.1437608 152.9275,9.8053858 C150.16625,23.0642108 151.3725,39.2062108 149.75875,53.3552108 C148.5425,63.9899608 149.1625,74.6902108 147.495,85.5402108 C129.2725,89.3312108 103.515625,86.4264608 85.632375,83.0812108 L85.632375,83.0812108 Z M151.80375,85.3737108 C151.65,73.9802108 152.31375,62.7414608 153.18375,51.3337108 C157.55875,51.9904608 160.5275,52.4289608 164.5925,53.3200858 C163.2725,64.3024608 163.435,76.6603358 160.74625,86.3752108 C157.63875,86.3454608 154.9025,86.4113358 151.80375,85.3737108 L151.80375,85.3737108 Z M173.9975,87.2102108 C171.92125,87.6862108 169.50375,87.2287108 167.52,87.1902108 C168.4525,77.9025858 170.715,67.6539608 171.51125,57.9049608 C174.6325,57.8078358 176.3,59.2799608 178.8675,59.7750858 C179.005,68.3327108 178.12,80.1227108 173.9975,87.2102108 L173.9975,87.2102108 Z M207.6025,56.5065858 C214.10875,58.0865858 218.2,66.0553358 216.38,74.2389608 C215.15875,79.7389608 212.98375,90.0954608 210.65625,93.6139608 C208.93625,96.2164608 204.2725,99.6237108 200.54875,97.2389608 C194.49125,93.3600858 183.82,92.2340858 179.4025,87.5388358 C181.6175,80.1638358 182.305,70.0339608 183.21875,60.6892108 C190.78625,60.2174608 200.0975,62.7717108 206.39125,60.0612108 C201.9975,58.6379608 196.29625,58.6267108 192.5,56.5524608 C195.6025,55.0539608 202.86625,55.3567108 207.6025,56.5065858 L207.6025,56.5065858 Z M147.09875,96.0739608 C142.52875,106.821461 138.37875,117.958711 131.555,126.618961 C124.943875,122.185211 117.663625,118.015336 115.805625,109.964086 C125.26875,104.610086 136.30125,99.3288358 147.09875,96.0739608 Z M158.36375,129.355211 C157.93125,118.606711 156.705,104.507586 153.84,96.0837108 C160.67375,104.785336 166.185,114.917711 171.945,124.782961 C169.49,128.723961 164.3575,132.160211 158.36375,129.355211 L158.36375,129.355211 Z M145.59375,133.892711 C143.005,134.171461 140.8075,130.916461 137.44125,132.323961 C136.67,131.471461 135.96875,130.547711 135.1825,129.715211 C142.6175,120.755086 145.99625,108.042711 151.73875,97.5129608 C154.82,107.627711 154.465,118.709211 155.14375,129.748961 C150.91,129.480211 148.56125,133.577711 145.59375,133.892711 Z M137.3825,144.730211 C137.10625,141.661461 137.82,140.657711 138.4375,137.140211 C148.525,133.986461 146.76375,150.985211 137.3825,144.730211 Z M126.19625,148.402711 C121.849625,150.777711 115.319875,153.363961 109.705625,154.435211 C102.746625,155.766461 103.3985,144.942711 103.693875,138.485211 C103.92575,133.372711 106.5845,127.966461 107.73925,124.570086 C108.28125,122.984086 108.403375,121.301461 109.75925,120.986586 C112.15575,120.427961 120.061,123.589086 122.3135,124.817586 C127.0775,127.415211 130.77375,131.540211 134.82,134.310211 C134.8725,135.657711 134.92375,137.003961 134.9775,138.351461 C132.545,139.563961 129.73375,140.423961 126.1625,140.580211 C128.585,141.798961 132.14875,141.781461 134.35625,143.231461 C134.3775,143.771461 134.4,144.310211 134.41875,144.845211 C130.38875,145.155211 128.8525,146.950211 126.19625,148.402711 L126.19625,148.402711 Z M84.67925,155.943961 C81.07175,152.281461 94.797375,147.288961 99.1675,147.020211 C99.143125,149.337711 100.48825,151.522711 100.21725,153.185211 C95.026875,154.096461 88.205625,153.495211 84.67925,155.943961 L84.67925,155.943961 Z M129.11875,154.223961 C129.10125,153.866461 128.635,153.996461 128.55875,153.705211 C133.2,150.077711 136.6475,149.327711 142.965,149.640211 C145.81375,151.707711 148.34,154.125211 151.30625,156.061461 C144.4775,155.451461 135.88125,151.210211 129.11875,154.223961 L129.11875,154.223961 Z M169.90875,141.855211 C169.71375,145.923961 168.645,154.291461 166.13,155.756461 C160.85125,158.837711 151.4675,149.535211 147.4925,148.116461 C147.925,146.871461 148.63875,145.885211 148.69375,144.293961 C151.045,144.872711 153.9075,144.476461 155.945,143.475211 C153.58875,143.211461 150.97625,143.228961 149.4175,142.106461 C148.84625,140.455211 149.5575,138.205211 149.1775,135.912711 C154.77,134.335211 161.1575,133.495211 168.2275,133.287711 C169.6025,135.075211 170.07125,138.480211 169.90875,141.855211 L169.90875,141.855211 Z M78.606,152.401461 C77.473125,153.208961 69.809625,163.180211 68.75975,162.766461 C54.892625,157.297711 41.92625,147.841461 30.339375,138.897711 C41.38675,115.192586 45.84625,86.1500858 46.63425,58.1579608 C59.2895,52.2389608 70.40525,43.7062108 87.578125,42.8152108 C85.590875,56.8752108 83.776875,69.4192108 82.648875,82.6564608 C78.334,84.4753358 72.1435,82.5739608 68.1055,83.2204608 C68.07125,88.0865858 74.2725,85.3513358 74.789,88.6237108 C75.17825,91.0988358 71.377,91.2863358 72.61475,95.1838358 C75.7715,94.0363358 77.42925,91.5017108 80.795875,90.5499608 C83.872125,97.2799608 80.752875,109.187711 81.19625,114.812711 C81.28025,115.868836 81.723625,120.663836 84.089375,119.822461 C86.183125,119.077836 83.96975,107.070086 84.19925,101.746336 C84.40825,96.8414608 83.606875,92.0954608 85.59325,89.0163358 C102.1875,91.2750858 119.05025,92.7350858 137.005,93.2277108 C133.055,94.9225858 128.3625,96.5265858 123.21775,99.4264608 C120.42875,100.998711 111.63725,104.270211 110.8325,106.919211 C109.548375,111.140336 114.201625,113.388836 114.9975,117.007586 C106.621125,112.439211 104.986875,121.386461 103.005375,127.725211 C101.21,133.466461 100.188,137.755211 99.7475,141.066461 C92.53175,144.506461 84.816875,147.990211 78.606,152.401461 L78.606,152.401461 Z M162.58,161.560211 C174.13375,167.162711 176.21625,140.621461 171.6875,132.071461 C172.3875,129.521461 174.795,128.545211 175.7775,126.252711 C169.33,114.702836 162.16875,103.921586 155.59,92.5075858 C160.48375,95.5539608 167.47375,93.0524608 173.2325,95.3327108 C175.3375,96.1652108 176.86125,100.984086 178.455,104.839086 C182.83875,115.445086 187.44125,128.816461 189.48875,138.937711 C189.95125,141.243961 191.21125,146.268961 190.92875,148.321461 C190.425,151.996461 185.43875,154.721461 182.9025,156.993961 C178.23,161.191461 175.2875,164.885211 170.41375,168.810211 C168.4375,165.892711 164.19625,163.932711 162.58,161.560211 L162.58,161.560211 Z M52.182625,264.020211 C46.67725,257.962711 47.829625,246.612711 48.496125,238.537711 C58.44725,244.797711 71.65525,238.042711 71.53075,227.395211 C76.28175,227.521461 73.305625,233.328961 72.44625,237.070211 C69.63775,249.290211 77.17775,262.566461 72.788125,273.741461 C64.265125,273.095211 57.263125,269.613961 52.182625,264.020211 L52.182625,264.020211 Z M91.57475,299.177711 C79.111375,295.645211 63.138125,286.588961 58.016625,275.392711 C61.982375,275.968961 64.735375,277.968961 68.6475,278.216461 C70.126,278.312711 72.063,277.596461 73.76225,278.018961 C77.1485,278.858961 80.006375,286.451461 82.561,289.276461 C85.05125,292.035211 88.044375,293.213961 90.09275,295.728961 C91.40875,296.363961 93.3545,296.320211 93.42925,298.296461 C92.858875,298.906461 92.25825,299.371461 91.57475,299.177711 L91.57475,299.177711 Z M156.45375,295.855211 C143.5175,303.153961 121.621125,308.643961 107.860375,301.783961 C96.756875,296.247711 81.748,287.087711 76.630875,275.480211 C81.411125,264.278961 75.214875,254.015211 74.819375,242.642711 C74.609375,236.591461 77.6685,231.308961 77.902875,224.721461 C76.267125,222.022711 71.2695,221.690211 67.81,221.875211 C66.6455,227.702711 64.606875,234.252711 58.606,234.910211 C50.11475,235.838961 43.90625,228.811461 43.5205,221.467711 C43.064,212.831461 50.15375,198.517711 60.202625,199.511461 C64.0845,199.895211 65.038125,203.786461 69.267625,203.746461 C71.56,199.172711 65.7315,197.736461 65.131875,194.465211 C64.975625,193.620211 65.61525,190.317711 65.98725,188.768961 C67.8125,181.227711 71.881375,171.467711 75.88625,165.726461 C80.96925,158.443961 90.955625,157.346461 101.69925,156.632711 C103.618125,160.766461 110.687,160.426461 115.293,159.345211 C109.773,161.531461 104.641125,166.831461 100.388125,171.522711 C95.502875,176.905211 90.55425,182.678961 90.30425,189.713961 C99.536125,176.906461 107.163125,165.721461 123.95025,160.087711 C136.6525,155.827711 151.4875,162.040211 161.2475,168.893961 C165.2975,171.742711 167.715,176.262711 170.59375,180.400211 C181.365,195.893961 186.39125,218.008961 185.28625,239.443961 C184.83125,248.283961 184.85125,257.093961 181.885,263.041461 C178.785,269.260211 168.3,274.823961 162.1625,269.198961 C161.025,275.246461 167.26625,278.986461 174.5975,276.810211 C169.37,283.556461 163.88375,291.662711 156.45375,295.855211 L156.45375,295.855211 Z M180.555,96.3962108 C190.66375,101.421586 209.55125,109.922586 215.88875,96.3777108 C218.2275,91.3849608 220.97125,82.9450858 222.1825,77.7912108 C223.89375,70.5202108 220.3275,55.2374608 212.85375,52.7975858 C206.2525,50.6428358 198.55,50.7740858 190.59875,52.3713358 C189.6625,53.1500858 188.62,54.5075858 187.89125,55.9225858 C182.21375,56.1428358 176.8975,55.6178358 172.4125,53.2839608 C172.8375,49.0852108 169.9975,48.4113358 167.335,47.5465858 C165.36125,39.7204608 171.28375,29.5002108 169.86625,22.3639608 C168.855,17.2799608 162.6,16.4938358 158.0025,15.5427108 C157.8525,12.7174608 158.20375,10.3590983 158.5175,7.9689608 C157.46625,4.0954233 152.75125,1.8903483 148.28375,1.3503108 C133.585,-0.417269196 111.267125,-1.21121545 97.128875,3.8727733 C93.183625,13.5499608 90.075625,25.3200858 86.7895,36.3703358 C73.0005,34.8977108 61.848125,42.3200858 51.3345,47.1828358 C47.694375,48.8703358 42.65875,49.7999608 41.298875,52.6974608 C39.9805,55.5027108 40.52,60.8790858 40.192875,65.9577108 C39.360375,78.9289608 38.6475,91.4402108 35.222125,104.721461 C33.684125,110.681336 31.003375,115.940211 29.13325,121.682836 C27.40475,127.005211 24.38475,133.582711 23.597125,138.890211 C22.42925,146.756461 29.836375,147.193961 34.57275,150.602711 C41.8945,155.873961 47.641625,158.788961 55.57125,163.546461 C57.919875,164.955211 65.0025,168.521461 65.808125,170.163961 C67.409625,173.420211 63.059125,178.011461 61.896,180.563961 C60.056125,184.600211 59.096625,188.028961 58.833,192.011461 C52.181125,193.062711 47.138625,197.021461 44.09275,201.485211 C39.05425,208.872711 35.56,222.540211 39.919375,232.936461 C40.26125,233.755211 41.96625,235.365211 42.21775,236.622711 C42.713875,239.098961 41.284125,242.391461 41.19525,245.025211 C40.73725,258.537711 43.4815,270.180211 52.578125,274.255211 C56.271,288.966461 69.48825,293.857711 81.940875,301.168961 C86.59575,303.901461 91.727,305.647711 97.026375,307.597711 C116.036625,314.593961 145.20375,313.276461 160.98125,301.343961 C167.67125,296.283961 178.365,285.600211 182.19,277.865211 C192.2925,257.443961 191.575,223.315211 184.50875,198.473961 C183.55875,195.138961 182.18125,190.236461 180.2575,186.230211 C178.91625,183.432711 174.7475,177.835211 175.25375,175.365211 C175.775,172.811461 184.75875,165.990211 186.685,164.132711 C190.15375,160.786461 196.74375,156.345211 197.2775,152.122711 C197.85125,147.628961 195.2975,141.481461 194.00375,137.145211 C189.67875,122.674086 185.45875,109.297586 180.555,96.3962108" id="path130" fill="#231F20"></path>
            <path d="M113.11375,196.568961 C113.662125,197.298961 116.67725,198.407711 120.896,196.376461 C120.896,196.376461 115.896,195.542711 116.312,187.206461 L114.2285,187.623961 C114.2285,187.623961 112.07525,195.182711 113.11375,196.568961" id="path132" fill="#F7E4CD"></path>
            <path d="M149.64625,124.917711 C149.64625,123.652586 148.62,122.626711 147.35375,122.626711 C146.08875,122.626711 145.0625,123.652586 145.0625,124.917711 C145.0625,126.182711 146.08875,127.210211 147.35375,127.210211 C148.62,127.210211 149.64625,126.182711 149.64625,124.917711" id="path134" fill="#1D1919"></path>
            <path d="M151.9375,114.292711 C151.9375,113.027586 150.91125,112.001711 149.645,112.001711 C148.38,112.001711 147.35375,113.027586 147.35375,114.292711 C147.35375,115.557836 148.38,116.585211 149.645,116.585211 C150.91125,116.585211 151.9375,115.557836 151.9375,114.292711" id="path136" fill="#1D1919"></path>
        </g>
    </g>
</svg>